A group of reporters are covering the unveiling of a new facility that is completely maintained by robot prototypes. When one of the robots goes haywire, the reporters find themselves not just reporting on the malfunction, but fighting for their lives.

IMDB rating: 3.4/10 (from 209 users)

CAST:

Zoe Naylor..............Christiane Nouveau
Graham Sibley...........Danny Ross
Edward Foy..............Jason Brooks
Lani John Tupu..........Gordon Standish (as Lani Tupu)
Jourdan Lee.............Harlan (as Jourdan Lee Khoo)
Karina Sindicich........Lisa
Peer Metze..............Luther Kobler
Tonya Cornelisse........Sky Bennett
Bjorn Turmann...........Tobin
Remesh Panicker.........Dr. Roshan Manik 

General
*******
Format                           : Matroska
File size                        : 692 MiB
Duration                         : 1h 20mn
Overall bit rate                 : 1 197 Kbps
Encoded date                     : UTC 2011-10-11 19:08:12
Writing application              : mkvmerge v5.0.0 ('Die Wahre Liebe') built on Sep 25 2011 20:33:49
Writing library                  : libebml v1.2.2 + libmatroska v1.3.0

Video
*****
ID                               : 1
Format                           : MPEG-4 Visual
Format profile                   : Advanced Simple@L5
Format settings, BVOP            : Yes
Format settings, QPel            : No
Format settings, GMC             : No warppoints
Format settings, Matrix          : Default (H.263)
Codec ID                         : XVID
Codec ID/Hint                    : XviD
Duration                         : 1h 20mn
Bit rate                         : 1 045 Kbps
Width                            : 624 pixels
Height                           : 352 pixels
Display aspect ratio             : 16:9
Frame rate                       : 23.976 fps
Resolution                       : 8 bits
Colorimetry                      : 4:2:0
Scan type                        : Progressive
Bits/(Pixel*Frame)               : 0.198
Stream size                      : 604 MiB (87%)
Writing library                  : XviD 1.2.1 (UTC 2008-12-04)

Audio
*****
ID                               : 2
Format                           : MPEG Audio
Format version                   : Version 1
Format profile                   : Layer 3
Format_Settings_Mode             : Joint stereo
Codec ID                         : A_MPEG/L3
Codec ID/Hint                    : MP3
Duration                         : 1h 20mn
Bit rate mode                    : Constant
Bit rate                         : 128 Kbps
Channel(s)                       : 2 channels
Sampling rate                    : 48.0 KHz
Stream size                      : 74.0 MiB (11%)
Writing library                  : LAME3.98.4

Text(subtitles)
***************
ID                               : 3
Format                           : UTF-8
Codec ID                         : S_TEXT/UTF8
Codec ID/Info                    : UTF-8 Plain Text
Language                         : Romanian
Language                         : Spanish

PLEASE SEED FOR AS LONG AS POSSIBLE!